<?xml version="1.0" encoding="utf-8"?>
<!-- Generator: Adobe Illustrator 27.8.1, SVG Export Plug-In . SVG Version: 6.00 Build 0)  -->
<svg version="1.1" id="Capa_1" xmlns="http://www.w3.org/2000/svg" xmlns:xlink="http://www.w3.org/1999/xlink" x="0px" y="0px" viewBox="0 0 1080 1080" xml:space="preserve">
<g>
	<path fill="#E4291A" d="M539.5,859.6c-185.2,0-333.6-148.7-332.6-335c1-184.5,151.5-330.2,333.2-329.9
		c181.7,0.4,333.3,147.9,331.6,335.7C870,716.2,718.3,860.2,539.5,859.6z M539.7,221.7c-169.2,0-306.6,137.2-306.2,305.6
		c0.5,167.8,135.2,305.4,305.3,305.5c170.5,0.2,302.9-136.4,306-299.4C848.2,359,706.9,221.1,539.7,221.7z"/>
	<path d="M735.2,911.5c-6.5,3.4-12.5,6.5-19.1,10c1.5,3,2.7,5.8,4.2,8.4c1.5,2.7,0.9,4.4-1.9,5.9c-11.8,6.3-9.5,5.6-14.8-4.3
		c-6.9-13-13.4-26.1-20.4-39c-5.3-9.9-1.8-19.4,7.4-22.9c6.5-2.5,12.4-6.5,18.6-9.6c9.4-4.6,16.1-2.4,20.9,6.8
		c7.8,14.8,15.4,29.8,23.3,44.6c1.8,3.5,1.7,5.4-2.1,7.4c-11.4,5.9-9.3,5-14.1-4.1C736.7,913.8,736.1,912.9,735.2,911.5z
		 M727.8,896.8c-3.1-6-5.6-11.8-9-17c-4-6-8.4-1.3-12.3,0.6c-3.7,1.8-9.2,3.1-6.7,9.2c2.4,5.8,5.7,11.2,8.8,17.2
		C715.2,903.4,721.3,900.2,727.8,896.8z"/>
	<path d="M873.1,759.4c4.5,2,8.7,3.5,12.3,5.7c3.7,2.3,7,5.3,10.2,8.2c4.8,4.2,5.7,9.3,1.8,14.4c-6.6,8.6-13.6,16.9-20.3,25.4
		c-2.2,2.7-4.1,1.7-6.2,0c-16.7-13.6-33.4-27.1-50.2-40.6c-2.7-2.2-2.5-4.1-0.5-6.6c6.5-7.8,12.7-15.8,19.2-23.6c5-6,9.8-6.3,16-1.6
		c4,3.1,8.3,6,11.8,9.6C869.9,753.1,871.5,756.8,873.1,759.4z M850.5,776.2c2.3-2.8,4.2-5.3,6.3-7.6c2.4-2.6,2.2-4.6-0.5-7
		c-8.1-7.1-8-7.2-14.8,1.1c-1,1.2-1.8,2.4-2.9,3.9C842.5,769.8,846.3,772.8,850.5,776.2z M874.1,795.4c2.6-4.6,6.3-8.7,6.8-13
		c0.2-2-6.5-7.3-8.7-6.6c-4.1,1.3-7.2,5.8-11,9.2C865.9,788.7,869.5,791.6,874.1,795.4z"/>
	<path d="M157.6,731.8c-6-0.5-9.8-3.1-12.2-7.6c-5.4-10.4-10.5-20.9-15.9-31.3c-1.6-3-0.9-4.7,2.1-6.2c18.6-9.3,37.2-18.6,55.7-28
		c3.1-1.6,4.7-0.8,6.2,2.2c5.1,10.3,10.4,20.6,15.5,30.9c3.6,7.3,1.9,14.3-5.1,18.1c-13.5,7.3-27.4,14-41.2,20.8
		C161,731.5,158.7,731.6,157.6,731.8z M183.2,677.9c-11.6,5.8-22.6,11.4-34,17.1c2.7,5.4,5.2,10.6,7.8,15.7c1.5,2.9,3.9,3.9,7,2.4
		c8.3-4.1,16.5-8.3,24.7-12.6c2.9-1.5,3.7-4,2.2-7.1C188.5,688.5,186,683.5,183.2,677.9z"/>
	<path d="M300,856.2c-6.9,9.4-14,18.7-20.6,28.4c-2.8,4.1-5.1,4.3-8.8,1.3c-7.4-5.9-8.5-4.3-2.1-13.1c11.1-15.1,22.2-30.2,33.1-45.4
		c2.6-3.7,4.4-3.9,8.4-1.6c6.7,3.9,7.9,8.6,6.4,15.8c-2.5,12-3.8,24.2-4.8,36.8c3.1-4.3,6.3-8.6,9.4-12.9c4.1-5.7,8.3-11.3,12.4-17
		c1.8-2.5,3.5-3,6.1-1.1c10.8,8.1,9.9,5.7,2.8,15.6c-10.6,14.6-21.4,29.1-31.8,43.8c-2.9,4.1-5,4.5-9.2,1.6c-5.2-3.5-6.9-7-5.7-13.3
		c2.4-12.7,3.7-25.6,5.4-38.4C300.5,856.4,300.2,856.3,300,856.2z"/>
	<path d="M324.7,913c0.3-1.2,0.7-4.1,1.8-6.5c6.1-12.4,12.2-24.8,18.6-37c4.4-8.4,11.1-10.9,19.6-7c8.1,3.7,16.1,7.7,23.9,12
		c5.8,3.2,7.7,7.7,6.2,14.1c-0.8,3.2-1.9,6.4-3.4,9.3c-5.1,10.4-10.3,20.6-15.6,30.9c-5.9,11.5-11.9,13.5-23.3,7.8
		c-7-3.5-14-7.2-21.1-10.6C326.7,923.6,324.6,919.8,324.7,913z M361,878.2c-2.1,1.8-4.5,3-5.5,4.8c-4.3,8-8.3,16.1-12.1,24.3
		c-1.4,3-0.8,5.7,2.8,7.2c3.2,1.4,6.4,2.9,9.3,4.7c4.4,2.8,7.3,1.2,9.3-2.8c4-7.7,8-15.5,11.6-23.4c0.8-1.7,0.5-5.3-0.6-6.1
		C371.3,883.8,366.4,881.3,361,878.2z"/>
	<path d="M612.3,954.7c8.8-2.3,17.2-4.5,25.6-6.8c2-0.5,4.1-1,6.1-1.7c3.3-1.1,5-3.4,4-6.9c-1-3.4-3.7-4.6-7.1-3.8
		c-4.6,1.1-9.1,2.4-13.7,3.6c-13.3,3.4-18.9,0.2-22.3-13c-0.9-3.6-2-7.1-2.8-10.7c-2.1-9,1.2-15.4,10.1-17.9
		c11.4-3.3,23-6.1,34.5-9.1c0.3-0.1,0.7-0.4,1-0.3c6.1,1.8,3.8,7.8,5.8,11.6c1.4,2.7-0.2,4.1-2.9,4.7c-8.8,2.2-17.6,4.5-26.4,6.7
		c-3.7,1-6.7,2.4-5.4,7.2c1.3,4.7,4.6,4.6,8.3,3.7c5.4-1.4,10.8-2.9,16.3-4.2c8.8-2.1,14.8,1.4,17.3,10c1.4,5,2.7,10.2,3.9,15.3
		c2,8-0.5,13.7-8.3,16.2c-12.2,3.8-24.6,6.8-37,9.9c-0.9,0.2-3-1-3.3-1.9C614.4,963.5,613.5,959.4,612.3,954.7z"/>
	<path d="M827.1,856.8c-2.2,3.6-3.7,7.5-6.5,10.1c-8.6,7.9-17.8,15.3-26.6,23c-2.4,2.1-4.4,1.8-6.2-0.7c-0.1-0.1-0.2-0.3-0.4-0.4
		c-8.2-9.6-8-8,0.9-15.5c5.2-4.4,10.4-8.8,15.6-13.3c2.9-2.5,4.9-5.4,1.7-9c-3.2-3.6-6.2-1.8-9.1,0.6c-4.4,3.7-8.7,7.6-13.4,11
		c-7.1,5.2-13.7,4.4-19.6-2.1c-3.3-3.6-6.5-7.4-9.6-11.2c-5.6-6.8-5.5-14.1,1-20.1c8.9-8.2,18.3-15.8,27.5-23.6
		c0.4-0.3,0.8-0.8,1.3-0.9c5.7-0.1,6.7,5.4,9.7,8.4c0.8,0.8,0.1,4.4-1.1,5.5c-6.6,6-13.5,11.7-20.3,17.5c-3,2.5-5,5-1.7,8.8
		c3.2,3.6,6.1,2.2,9.1-0.3c4.3-3.6,8.5-7.4,12.8-10.9c7-5.6,13.8-5,19.9,1.6c3.6,4,7.3,8.1,10.5,12.4
		C824.4,850.3,825.4,853.3,827.1,856.8z"/>
	<path d="M438,929.5c7.1,13.3-1.5,24.1-3.8,35.6c-1.1,0.3-1.5,0.5-1.8,0.4c-13.3-3.5-13.3-3.5-9.2-16.4c4.3-13.6,5.8-13.8-9.5-18.2
		c-2.7-0.8-5.3-1.6-8.4-2.6c-2.3,7.3-4.6,14.2-6.5,21.2c-1.1,3.8-2.5,5-6.6,3.6c-9.2-3.2-9.3-2.9-6.4-12.2
		c5.5-17.5,10.9-35,16.4-52.5c2-6.4,2.2-6.6,8.3-4.6c10.5,3.4,20.9,6.8,31.4,10.3c7.3,2.5,10.9,8.5,9,15.9
		C448.7,917.8,448.1,926.8,438,929.5z M410.2,912.4c5.9,1.9,11.3,3.4,16.5,5.4c3.5,1.3,5.7,0.4,7.2-2.9c1.4-3.5-0.1-6.1-3.1-7.3
		c-5.5-2.1-11.2-3.7-17.2-5.6C412.4,905.6,411.4,908.6,410.2,912.4z"/>
	<path d="M531.7,950c0,3.7,0,7,0,10.7c7.2,0,14.1,0,21,0c3.7,0,7.4,0.1,11-0.2c4.2-0.3,5.6,1.6,5.4,5.6c-0.2,3.3,0,6.6,0,10.7
		c-17.7,0-34.9,0-53.3,0c0-6.7,0.1-13.6,0-20.6c-0.2-15.2-0.4-30.5-0.7-45.7c-0.1-3.4,1.1-4.5,4.5-4.5c14.5,0,29.1-0.1,43.6-0.3
		c3.6-0.1,5.1,1,4.9,4.8c-0.2,3.6-0.1,7.3-0.1,11.8c-12.4,0-24.4,0-36.7,0c0,4.1,0,7.3,0,11c6.9,0,13.5,0.2,20-0.1
		c4-0.2,5.1,1.4,5.2,5.2c0.2,11.3,0.3,11.4-11.1,11.7C540.9,950.1,536.4,950,531.7,950z"/>
	<path d="M188.1,747.9c-2.1,1.2-3.9,2.3-5.7,3.4c-1,0.6-2,1.4-3.4,2.3c5.5,9.1,10.7,18.1,16.3,26.9c2.4,3.7,1.8,5.7-2,7.9
		c-10.4,6-8.7,6.4-14.7-3.6c-6.2-10.4-12.4-20.8-18.8-31c-2.4-3.8-2.2-5.9,1.9-8.3c17.5-10.3,34.9-20.8,52.2-31.5
		c3.4-2.1,4.9-1.6,6.9,1.8c7.2,12.4,14.5,24.8,22,37c2.1,3.4,1.4,5-1.9,6.9c-11.2,6.4-9.1,6.9-15.5-3.6c-4.4-7.3-8.9-14.6-13.6-22.4
		c-3.1,1.8-5.9,3.5-9.2,5.4c3.5,5.8,6.7,11.4,10.2,16.8c2.2,3.3,2.1,5.4-1.6,7.6c-11.7,6.7-9.1,7-15.8-3.8
		C192.9,755.8,190.6,751.9,188.1,747.9z"/>
	<path d="M951.3,699.7c-0.1,0.4-0.1,1.9-0.7,3.1c-4.4,8.4-8.6,16.8-13.4,25c-2.8,4.7-7.7,5.8-12.9,3.1
		c-15.8-8.2-31.6-16.6-47.2-25.2c-5.4-3-6.7-7.8-4-13.6c3.8-7.9,8-15.6,12.3-23.2c3.1-5.4,7.7-6.5,13.5-4c1.3,0.6,2.5,1.2,3.8,1.9
		c9.2,4.7,9,4.6,4.4,13.8c-2,3.8-3.9,4.9-7.6,2.4c-3.1-2.2-4.9-0.9-6.6,2.2c-4.9,8.8-4.9,8.7,3.9,13.4c8.5,4.5,17.1,8.8,25.4,13.7
		c4.7,2.7,7.4,1.9,9.1-3.1c0.3-1,0.9-1.9,1.5-2.8c1.9-3,1.5-5.3-2-6.7c-4.2-1.6-4.3-4-2.2-7.7c5.9-10.3,3.7-9.3,13.6-4.1
		C949.8,691.9,951.3,693.7,951.3,699.7z"/>
	<path d="M307.2,206.6c4.2,6.4,8.2,13,12.7,19.2c2.7,3.8,1.7,5.8-1.9,7.8c-3.2,1.7-5.6,4.6-8.9-0.5c-8.5-13.7-17.6-27-26.2-40.6
		c-1.1-1.7-1.6-5.7-0.9-6.1c3.1-1.8,5.5-6.8,10.3-3.9c7.6,4.6,15.2,9.3,22.8,14c1.6,1,3.3,1.9,5.6,3.2c-1.6-10.6-3.1-20.4-4.7-30.2
		c-0.7-4.6,3.9-10.8,8.5-10.9c1.1,0,2.5,1.1,3.2,2.1c9.5,14.3,18.8,28.7,28.2,43c3.2,4.9-1.6,5.5-3.8,7.3c-2.2,1.9-4.6,3.4-6.9-0.3
		c-4.2-6.6-8.5-13.1-13.9-19.5c0.5,4.7,0.6,9.4,1.6,14c0.9,4.3-1.7,5.7-4.5,7.8c-2.9,2.2-5.2,2-8.1,0.2c-4.1-2.6-8.4-5-12.5-7.5
		C307.7,206.1,307.5,206.3,307.2,206.6z"/>
	<path d="M506.3,164.7c3.4,3.1,6.5,5.9,10.6,9.6c-8,1.1-14.6,4.1-20.3-2.6c-3.9-4.6-8.6-6.3-14.9-4.8c-4.5,1.1-8.5-1.2-10.2-5.6
		c-1.3-3.5-2-7.4-2.5-11.2c-1.2-9.7-2.3-19.5-3.2-29.2c-0.7-7,2.8-11.6,9.7-12.6c7.3-1.1,14.6-1.9,21.9-2.5c6.4-0.5,10.9,3,11.8,9.5
		c1.6,12.2,2.9,24.3,4,36.5C513.8,157.3,512.3,162.3,506.3,164.7z M499.9,142.9c-0.2-2.3-0.7-6.2-1.1-10.2
		c-1.1-13.4-1.1-13.3-14.3-11.8c-4.3,0.5-5.8,2.5-5.4,6.5c0.5,4.9,1.2,9.7,1.5,14.6c0.6,13,3,11.2,13.2,10.3
		C499.7,151.8,500.5,150.6,499.9,142.9z"/>
	<path d="M867.4,367.1c-2.8-5.6-5.3-10.6-7.9-15.9c-1.3,0.5-2.4,0.9-3.5,1.4c-6.6,3.2-10.4,1.2-11.5-6.2c-0.1-1,1.1-2.9,2.2-3.4
		c13.2-6.7,26.5-13.4,39.9-19.8c6.4-3,12.1-0.6,15.4,5.7c3,5.9,6,11.8,8.8,17.9c3.4,7.4,1.6,12.9-5.7,16.6
		c-12.6,6.4-25.4,12.5-38,19c-5.4,2.8-5.6-1.9-7.2-4.6c-1.7-2.9-3.1-5.8,1.6-7.5C863.3,369.5,865.1,368.3,867.4,367.1z M879.7,361.1
		c4.8-2.4,9.2-4.2,13.2-6.6c1.5-0.9,3.6-3.5,3.2-4.5c-1.3-3.9-3.4-7.6-5.6-11.1c-0.5-0.9-3-1.3-4.2-0.8c-4.9,2.1-9.6,4.6-14.6,7.1
		C874.5,350.7,877,355.7,879.7,361.1z"/>
	<path d="M717.3,202.4c-5.3-2.9-10.5-5.7-15.8-8.6c-1.1,1.9-2.2,3.3-2.8,4.9c-1.7,4.5-4.1,4.6-8,2.2c-6-3.6-6.1-3.4-2.7-9.8
		c6.1-11.2,12.1-22.5,18.3-33.7c4.7-8.4,10.4-10.1,18.7-5.6c5.4,2.9,10.8,5.8,16.1,8.9c7,4.2,8.6,9.6,4.8,16.8
		c-6.7,12.5-13.6,24.9-20.2,37.4c-1.4,2.7-3,3.8-5.7,1.8c-1-0.7-2.1-1.3-3.2-1.8c-3.9-1.4-4.7-3.7-2.4-7.2
		C715.5,206.3,716.2,204.5,717.3,202.4z M708.3,181.8c5.2,2.8,10.2,5.6,15.7,8.6c2.7-5,5.4-9.7,7.8-14.5c0.4-0.9,0.4-2.9-0.2-3.3
		c-3.9-2.5-7.9-4.9-12.1-6.8c-0.7-0.3-3,1.6-3.8,2.9C713,172.7,710.8,177.1,708.3,181.8z"/>
	<path d="M445.3,162.5c-5.9,1.5-11.2,3-17.2,4.5c0.4,2.2,0.5,4.3,1.3,6.1c2.4,5.3-1.4,5.8-4.9,6.8c-3.5,1-6.5,2.1-7.8-3.3
		c-3.1-12.9-6.9-25.7-10.2-38.6c-2.6-9.8,0.4-15,10.1-17.7c5.4-1.5,10.8-3.1,16.2-4.3c9.1-2.1,14,0.9,16.4,9.8
		c3.5,13,6.7,26.1,10.6,39c1.9,6.2-2.5,5.8-5.9,7c-3.9,1.4-6.4,1.1-7-3.7C446.7,166.5,446,164.9,445.3,162.5z M424.6,153.8
		c5.8-1.6,11.3-3.1,17.2-4.7c-1.4-5-2.3-9.9-4-14.4c-0.7-1.8-3.7-4.2-5-3.9c-4.4,1.2-10.2,0.2-12.5,5.9c-0.2,0.6,0.1,1.4,0.3,2
		C421.8,143.7,423.1,148.5,424.6,153.8z"/>
	<path d="M764.9,247.4c-3-1.4-5.7-2.3-7.9-3.8c-7.3-5.4-14.4-11.1-21.7-16.5c-2.6-1.9-3.3-3.5-1.1-6.3
		c10.4-13.4,20.6-26.9,30.9-40.4c1.9-2.5,3.5-2.8,6-0.8c7.4,5.9,15,11.4,22.5,17.2c5.5,4.3,6.8,10,2.7,15.7
		c-7.4,10.4-15.2,20.5-23.3,30.4C771.2,245,767.8,245.8,764.9,247.4z M750.1,221c4,3,7.5,6.2,11.5,8.6c1.5,0.8,5,0.4,6.1-0.8
		c4.8-5.5,9-11.6,13.5-17.4c1.9-2.5,1.9-4.8-0.8-6.8c-3.6-2.7-7.2-5.5-11.2-8.5C762.9,204.3,756.6,212.5,750.1,221z"/>
	<path d="M844.7,248.7c-1.7,3-3,6.6-5.4,9.1c-7.9,8.1-16.1,16.1-24.5,23.7c-6.7,6.1-11.9,5.7-18.2-0.7c-4.4-4.5-8.8-9.1-13.1-13.6
		c-5.4-5.6-6-11.6-0.6-17.1c8.8-9,18-17.6,27.2-26.2c4.1-3.7,9.8-3.8,14.4,0.4c6.2,5.6,11.8,11.9,17.5,18.1
		C843.1,243.8,843.5,246.1,844.7,248.7z M806.4,270.1c1.6-0.9,3.2-1.6,4.5-2.7c3.5-3.1,6.9-6.4,10.3-9.6c9-8.4,8.8-9.1-0.1-17.9
		c-3.4-3.4-6.2-3.3-9.4-0.2c-4.7,4.6-9.5,9.3-14.2,13.9c-3,2.8-3.3,5.4,0,8.3c2.1,1.8,3.8,4.1,5.8,6
		C804.1,268.7,805.2,269.3,806.4,270.1z"/>
	<path d="M859.2,313.2c-2.2,11.3-11.8,14.8-19.3,20.1c-0.7,0.5-3.8-1.8-5.3-3.2c-3.9-3.6-3.5-6.6,1.4-9.2c3.1-1.6,5.7-4.1,8.6-6
		c3.3-2.2,3.9-4.7,1.5-7.9c-2.6-3.5-5-7.1-7.9-11.2c-5.1,3.6-10.1,6.9-15,10.6c-4.4,3.3-5.7-0.4-7.6-3c-1.9-2.5-3.6-4.6,0.3-7.3
		c13.9-9.5,27.6-19.2,41.3-29c2.7-2,4.4-1.9,6.3,1c5.2,7.9,10.7,15.6,16,23.4c3.3,5,3.3,9.8-0.9,13.8
		C873.4,310.3,868.1,315.6,859.2,313.2z M849.6,287.8c2.8,4.1,5.5,8,8.1,11.8c1.6,2.3,3.9,3.8,6,1.5c1.3-1.5,2.1-4.9,1.3-6.5
		c-2.1-4.1-5.1-7.7-8.1-11.9C854.3,284.4,852.1,285.9,849.6,287.8z"/>
	<path d="M595.5,155.6c9,1.9,17.3,3.8,25.7,5.2c3.9,0.6,4.6,2.4,3.8,5.7c-0.4,1.7-0.3,3.7-1.2,5c-0.9,1.3-3,3-4.3,2.8
		c-11.9-2.1-23.6-4.7-35.5-7c-3.1-0.6-3.6-2.2-3.1-4.8c3.4-16.8,6.8-33.6,10.4-50.3c0.3-1.3,2.8-3.4,4-3.1c13,2.5,25.9,5.3,39.5,8.2
		c-0.8,3.8-1.1,7.3-2.3,10.5c-0.4,1.1-2.9,2.2-4.3,1.9c-8.6-1.5-17.1-3.3-26.2-5.1c-0.6,2.9-1.2,5.5-1.8,8.6
		c5.5,1.2,10.6,2.6,15.7,3.3c4,0.5,4.5,2.5,3.7,5.8c-0.1,0.3-0.1,0.7-0.2,1c-1.5,7.7-1.5,7.8-9.3,6.3c-3.9-0.7-7.9-1.5-12.5-2.4
		C597,149.8,596.3,152.4,595.5,155.6z"/>
	<path d="M264.1,200.6c10.5,8.8,10.5,8.8,1.3,17.4c-4.5,4.2-9,8.3-13.5,12.5c-0.1,0.1-0.2,0.3-0.6,1c1.7,1.8,3.5,3.8,5.7,6.2
		c3.7-3.3,7.3-6.3,10.5-9.7c3.3-3.5,6.2-4.5,9.1,0.2c0.5,0.7,1.2,1.3,1.8,1.9c2.8,2.5,3,4.6-0.2,7.2c-3.9,3.2-7.5,6.8-11.6,10.7
		c1.9,2.1,3.7,4.1,5.8,6.5c6.4-5.9,12.9-11.6,19-17.5c3-3,5.3-2.8,7.6,0.6c2,3,7.2,5,1.8,9.6c-8.6,7.5-16.9,15.3-25.1,23.2
		c-2.9,2.8-4.6,2-6.9-0.5c-11.2-12.3-22.5-24.5-33.8-36.7c-1.7-1.8-3.1-3.6-0.7-5.8C244.1,218.5,254,209.7,264.1,200.6z"/>
	<path d="M220.3,333.3c-7.1-4.4-7.7-9.8-2.5-15.4c0.7-0.7,2.4-1.3,3.1-1c4.1,1.8,8.4,3.6,12.1,6.1c3.4,2.4,3.7,6.3,2.1,10
		c-3,7.1-6,14.2-9.4,21.1c-2.6,5.1-7,6.7-12.4,4.3c-13.8-6-27.5-12.2-41.1-18.6c-5.8-2.7-7.2-7.1-4.7-13.1
		c2.7-6.5,5.6-12.8,8.6-19.2c2.7-5.7,7.1-7.3,13.1-5.1c1,0.4,1.9,0.8,2.9,1.2c8.8,3.9,9.5,6.5,3.7,14.6c-0.7,1-2.6,1.6-3.9,1.5
		c-1.6-0.1-3.2-1.2-5.3-2c-1.5,3.3-3,6.4-4.7,10.2c11.2,5.1,22.1,10,33.8,15.3C217.2,339.9,218.7,336.7,220.3,333.3z"/>
	<path d="M526.9,130.8c0.4-7.5,0.8-15,1-22.5c0.2-6.6,5.1-3.5,8.1-4c3.3-0.5,5.2,0.8,4.9,4.7c-0.7,10.8-1.2,21.7-1.8,32.5
		c-0.5,7.9,0.3,9,8,9.2c0.9,0,1.8,0,2.6,0c6.9,0.3,8.4-0.8,8.7-7.8c0.6-10.5,1-21,1.3-31.5c0.1-3.7,0.3-6.5,5.3-6.1
		c7.5,0.5,7.7,0.4,7.4,6.6c-0.6,14-1.2,28-2,41.9c-0.4,6.8-4.9,10.8-11.8,10.7c-6.8-0.1-13.6-0.4-20.4-0.9
		c-8.8-0.6-12.3-4.6-12.3-13.6c0-6.5,0-12.9,0-19.4C526.3,130.8,526.6,130.8,526.9,130.8z"/>
	<path d="M475.2,917.7c-5.2-0.8-9.6-1.5-14.1-2.2c-0.7-0.1-1.4,0-2.1-0.2c-5.5-1.9-2.1-6.1-1.6-8.8c0.5-2.5-2-8.3,4.3-7.4
		c15.3,2.1,30.5,4.5,45.8,6.6c3.2,0.4,4.3,1.9,3.7,4.9c-0.7,3.7-1.3,7.5-2,11.8c-6.4-0.8-12.4-1.6-19.1-2.5
		c-2.6,17.9-5.3,35.7-8,54.1c-4.9-0.7-9.3-1.3-14.6-2.1C470,953.8,472.6,936.1,475.2,917.7z"/>
	<path d="M370.3,177.2c2.4,5.6,4.5,11.1,7,16.5c2.7,5.7-2.5,5.3-5.1,6.9c-2.6,1.6-5,2.2-6.6-1.7c-6.7-15.6-13.5-31.1-20.4-46.6
		c-1.3-2.9-0.8-4.5,2.1-5.7c8.7-3.7,17.3-7.7,26-11.3c6.3-2.6,12-0.6,15.1,5.4c2.1,4,4,8.2,5.5,12.5c2.7,7.9,0.5,12.7-7,16
		c-5.1,2.3-10.3,4.5-15.4,6.8C371.2,176.2,371,176.5,370.3,177.2z M364.3,164c5-2.3,9.4-3.9,13.4-6.3c1.3-0.8,2.2-3.9,1.7-5.5
		c-0.3-1.2-3.5-2.7-4.8-2.2c-4.7,1.6-9.1,3.9-13.9,6C361.9,158.8,363,161.1,364.3,164z"/>
	<path d="M216.4,808.6c7.2,8.5,14.1,16.9,21.3,25c2.9,3.3,2.7,5.3-0.7,8.1c-9.1,7.2-7.4,7.9-15.2-1.2c-8-9.5-15.9-19.1-24.1-28.4
		c-3-3.4-2.5-5.4,0.8-8.1c15.4-12.9,30.8-25.9,46-39c3.1-2.7,5.4-2.8,7.6,0.7c0.6,0.9,1.3,1.7,2,2.4c4.1,3.5,2.9,6.1-0.8,9.2
		c-11.1,9.1-21.9,18.5-32.9,27.8C219.1,806.1,217.9,807.3,216.4,808.6z"/>
	<path d="M675,144.8c-4.4,12.3-8.8,24.3-13.1,36.2c-2.1,5.9-7.5,7.3-12.1,2.7c-1-1-0.6-3.9-0.1-5.6c4.3-12.4,8.8-24.7,13.4-37.6
		c-3.7-1.4-7.2-2.8-10.8-3.9c-3.2-1-4.3-2.7-3-5.8c0.7-1.6,1.4-3.2,1.8-4.9c0.8-2.9,2.5-3.5,5.1-2.5c11.7,4.2,23.4,8.3,35,12.8
		c1.2,0.5,2,3,2.1,4.6c0.1,1.4-1,2.9-1.4,4.5c-1,4-3,5-6.9,3.2C682.2,146.9,678.8,146.1,675,144.8z"/>
	<path d="M922.4,752.8c-2.9,3.9-5.2,7.4-7.9,10.5c-0.5,0.6-3,0-4.1-0.7c-18.2-12-36.4-24.1-54.5-36.4c-1.1-0.7-1.8-3.7-1.2-4.9
		c5.3-10.8,5.7-10.8,15.4-4.3c16,10.6,32,21.3,48,32C919.5,749.9,920.7,751.3,922.4,752.8z"/>
	<path d="M251.2,304.6c-2.4,3.7-4.1,7.4-6.8,9.9c-1,0.9-4.8-0.6-6.8-1.8c-14.8-8.3-29.5-16.8-44.1-25.3c-5.2-3-5-3.2-0.9-11
		c2.3-4.2,4.5-4.3,8.3-2c15.2,9,30.6,17.7,45.9,26.6C248.2,301.8,249.5,303.2,251.2,304.6z"/>
	<path d="M770.7,887.7c2.8,4.8,6.7,8.7,6.5,12.3c-0.1,2.5-6.8,7.2-9,6.4c-3.3-1.1-7-6.3-7-9.7C761.2,894,766.6,891.4,770.7,887.7z"
		/>
	<path d="M695.5,943.9c-1,2.5-9.2,7.7-10.9,6.1c-3-2.7-4.5-7.1-6.6-10.8c3.5-1.9,7.9-6.2,10.2-5.3 C691.4,935.2,693.1,940.3,695.5,943.9z"/>
	<g>
		<path fill="#E4291A" d="M552.9,729.8c0-8.4,0.1-16.8,0-25.2c-0.1-5.2,2-8.3,6.9-10.5c82.5-37.1,134.4-99.6,155.5-187.6
			c0.7-3.1,1.1-6.2,1.7-9.3c0.8-4.5,2.6-8,8-8c5.1,0,7.2,3.3,7.9,7.5c3,17.9,6.8,35.8,8.4,53.9c1.7,19.5,2.5,39.2,1.3,58.7
			c-3.7,62.1-34,107.7-88.5,137.1c-20.5,11-42.7,16.4-66,17.3c-8.4,0.3-16.8,0.7-25.2,0.9c-7.5,0.1-10-2.5-10-10.2
			C552.9,746.3,552.9,738,552.9,729.8z"/>
		<path fill="#E4291A" d="M525.7,729.8c0,8.4,0,16.8,0,25.2c-0.1,7-2.6,9.6-9.4,9.6c-29.8,0.2-59.2-2.3-86.5-15.7
			c-53.3-26.2-85.1-68.6-92.7-127.6c-4.7-36.7-0.9-73.4,5.7-109.7c1-5.3,2.3-10.6,3.4-15.9c0.9-4.4,3.6-6.7,8.2-6.5
			c4.8,0.2,6.3,3.5,7.4,7.5c4.4,16.2,7.5,32.9,13.6,48.4c26.9,68.9,74.7,118.3,142.3,148.3c6.1,2.7,8.6,6.2,8.2,12.8
			C525.4,714,525.7,722,525.7,729.8z"/>
		<path fill="#E4291A" d="M552.9,549.4c0-4.7,0-9.5,0-14.2c0-7.8,1.1-9.3,8.3-11.9c50.1-18.5,83.9-53.2,101.3-103.7
			c1.4-4.1,2.6-8.4,3.6-12.6c1-4.2,3.6-6.6,7.6-6.7c4.2-0.1,6.7,2.6,7.8,6.6c5.1,18.2,7.5,36.7,6.1,55.6
			c-1.3,18.4-4.6,36.5-13.1,53.2c-15.3,29.9-40.1,47.7-72.6,54.3c-12.3,2.5-24.9,3.5-37.5,4.4c-9.3,0.7-11.5-2-11.5-11.2
			C552.9,558.5,552.9,553.9,552.9,549.4z"/>
		<path fill="#E4291A" d="M525.7,549.4c0,5.6,0.1,11.2,0,16.8c-0.1,4.6-2.4,8-7.3,8c-30.1,0.2-59.1-4.6-84.1-22.9
			c-22.5-16.4-34.9-39.1-40.3-66.1c-5.1-25.9-4.3-51.5,2.8-77c1.2-4.4,3.1-8.1,8.2-8c5.1,0,6.8,3.8,8,8.2
			c15.4,56.7,50.8,95.1,106,115.3c4.6,1.7,6.8,4.5,6.7,9.3C525.6,538.5,525.7,544,525.7,549.4z"/>
		<path fill="#E4291A" d="M552.9,388.1c0-4.7,0-9.5,0-14.2c0-8.1,1.3-9.8,9.1-11.4c31.8-6.7,55.2-24.6,70.6-53c1-1.8,1.4-4.3,2.9-5.5
			c2.3-1.9,5.3-4.1,8.1-4.2c3.9-0.2,6,3.1,6.5,7c2.3,19.6-0.4,38.4-8.9,56.3c-14.1,29.9-39.4,43.7-70.5,49.4c-2.7,0.5-5.6,0.8-8.3,1
			c-6.3,0.4-9.4-2.4-9.5-8.9C552.8,398.9,552.9,393.5,552.9,388.1z"/>
		<path fill="#E4291A" d="M525.7,388.4c0,5.6,0.1,11.2,0,16.8c-0.1,5.5-3.2,8.5-8.7,8.1c-46.4-3.8-83.9-31.5-88.6-84.4
			c-0.6-7.1-0.1-14.3,0.1-21.5c0.1-4.1,2.1-7.1,6.4-7.9c4.2-0.8,7,1.2,8.8,5c15.2,31.9,40.3,51.3,74.8,58.4c5.3,1.1,7.3,4.1,7.2,9.2
			C525.6,377.5,525.7,383,525.7,388.4z"/>
	</g>
</g>
</svg>
